<svg width="21" height="20" viewBox="0 0 21 20" fill="none" xmlns="http://www.w3.org/2000/svg">
<g clip-path="url(#clip0_16_33)">
<path d="M12.3333 6.66667H14V8.33333C14 8.79167 14.375 9.16667 14.8333 9.16667C15.2916 9.16667 15.6666 8.79167 15.6666 8.33333V6.66667H17.3333C17.7916 6.66667 18.1666 6.29167 18.1666 5.83333C18.1666 5.375 17.7916 5 17.3333 5H15.6666V3.33333C15.6666 2.875 15.2916 2.5 14.8333 2.5C14.375 2.5 14 2.875 14 3.33333V5H12.3333C11.875 5 11.5 5.375 11.5 5.83333C11.5 6.29167 11.875 6.66667 12.3333 6.66667ZM16.675 12.725L14.5583 12.4833C14.05 12.425 13.55 12.6 13.1916 12.9583L11.6583 14.4917C9.29996 13.2917 7.36663 11.3667 6.16663 9L7.70829 7.45833C8.06663 7.1 8.24163 6.59167 8.18329 6.09167L7.94163 3.99167C7.84996 3.15 7.13329 2.50833 6.29163 2.50833H4.84996C3.90829 2.50833 3.12496 3.29167 3.18329 4.23333C3.62496 11.35 9.31663 17.0333 16.425 17.475C17.3666 17.5333 18.15 16.75 18.15 15.8083V14.3667C18.1583 13.5333 17.5166 12.8167 16.675 12.725Z" fill="white"/>
</g>
<defs>
<clipPath id="clip0_16_33">
<rect width="20" height="20" fill="white" transform="translate(0.666626)"/>
</clipPath>
</defs>
</svg>
