<svg width="41" height="40" viewBox="0 0 41 40" fill="none" xmlns="http://www.w3.org/2000/svg">
<g clip-path="url(#clip0_1_14)">
<path d="M40.4449 21.4998H33.3003C27.0594 21.4998 22.0003 26.559 22.0003 32.7998V39.9444C31.8502 39.214 39.7145 31.3497 40.4449 21.4998Z" fill="#111111"/>
<path d="M19.0003 39.9444V32.7998C19.0003 26.559 13.9411 21.4998 7.70026 21.4998H0.555664C1.286 31.3497 9.15036 39.214 19.0003 39.9444Z" fill="#111111"/>
<path d="M40.4449 18.4998C39.7145 8.64987 31.8502 0.78551 22.0003 0.0551758V7.19977C22.0003 13.4406 27.0594 18.4998 33.3003 18.4998H40.4449Z" fill="#111111"/>
<path d="M19.0003 0.0551758C9.15036 0.78551 1.286 8.64987 0.555664 18.4998H7.70026C13.9411 18.4998 19.0003 13.4406 19.0003 7.19977V0.0551758Z" fill="#111111"/>
<path d="M14.083 19.9998C16.8555 18.6145 19.115 16.355 20.5002 13.5825C21.8855 16.355 24.1449 18.6145 26.9175 19.9998C24.1449 21.385 21.8855 23.6445 20.5002 26.417C19.115 23.6445 16.8555 21.385 14.083 19.9998Z" fill="#111111"/>
</g>
<defs>
<clipPath id="clip0_1_14">
<rect width="40" height="40" fill="white" transform="translate(0.5)"/>
</clipPath>
</defs>
</svg>
