<svg width="21" height="20" viewBox="0 0 21 20" fill="none" xmlns="http://www.w3.org/2000/svg">
<g clip-path="url(#clip0_16_28)">
<path d="M17.3333 3.33325H3.99996C3.08329 3.33325 2.34163 4.08325 2.34163 4.99992L2.33329 14.9999C2.33329 15.9166 3.08329 16.6666 3.99996 16.6666H17.3333C18.25 16.6666 19 15.9166 19 14.9999V4.99992C19 4.08325 18.25 3.33325 17.3333 3.33325ZM16.5 14.9999H4.83329C4.37496 14.9999 3.99996 14.6249 3.99996 14.1666V6.66658L9.78329 10.2833C10.325 10.6249 11.0083 10.6249 11.55 10.2833L17.3333 6.66658V14.1666C17.3333 14.6249 16.9583 14.9999 16.5 14.9999ZM10.6666 9.16658L3.99996 4.99992H17.3333L10.6666 9.16658Z" fill="white"/>
</g>
<defs>
<clipPath id="clip0_16_28">
<rect width="20" height="20" fill="white" transform="translate(0.666626)"/>
</clipPath>
</defs>
</svg>
