<?xml version="1.0" standalone="no"?>
<!DOCTYPE svg PUBLIC "-//W3C//DTD SVG 20010904//EN"
 "http://www.w3.org/TR/2001/REC-SVG-20010904/DTD/svg10.dtd">
<svg version="1.0" xmlns="http://www.w3.org/2000/svg"
 width="656.000000pt" height="656.000000pt" viewBox="0 0 656.000000 656.000000"
 preserveAspectRatio="xMidYMid meet">
<metadata>
Created by potrace 1.14, written by Peter Selinger 2001-2017
</metadata>
<g transform="translate(0.000000,656.000000) scale(0.100000,-0.100000)"
fill="#000000" stroke="none">
<path d="M2947 6464 c-1 -1 -29 -5 -62 -9 -93 -10 -121 -15 -250 -42 -66 -14
-127 -27 -135 -28 -8 -2 -17 -4 -20 -5 -3 -1 -9 -3 -15 -5 -5 -1 -13 -3 -17
-5 -5 -1 -11 -3 -15 -4 -37 -7 -110 -31 -120 -39 -7 -5 -13 -7 -13 -3 0 10
-253 -87 -362 -140 -38 -18 -68 -29 -68 -26 0 4 -4 3 -8 -3 -4 -5 -32 -23 -62
-39 -160 -83 -399 -235 -469 -298 -8 -7 -28 -23 -45 -36 -164 -123 -429 -397
-566 -584 -33 -46 -64 -87 -68 -93 -28 -35 -72 -105 -72 -113 0 -6 -4 -12 -8
-14 -16 -6 -211 -365 -217 -398 -1 -3 -9 -23 -19 -45 -48 -107 -132 -355 -161
-475 -8 -32 -46 -216 -49 -240 -3 -14 -8 -45 -12 -70 -11 -73 -15 -112 -17
-175 -2 -49 1 -59 13 -57 27 7 117 5 128 -2 6 -3 13 -2 17 3 3 6 15 7 29 1 12
-4 29 -5 36 0 7 5 23 5 35 0 12 -5 28 -4 35 0 8 5 18 6 23 3 12 -7 106 -8 113
0 3 3 19 1 35 -3 16 -5 31 -5 34 -1 2 5 23 5 45 1 22 -4 43 -4 45 1 3 4 18 4
34 -1 16 -4 32 -6 35 -2 8 7 112 5 125 -2 5 -4 12 -2 16 3 3 6 15 7 29 1 12
-4 29 -5 36 0 7 5 23 5 35 0 12 -5 28 -4 35 0 8 5 18 6 23 3 5 -3 32 -5 61 -4
28 1 60 1 71 1 30 -2 33 -2 135 3 140 7 264 27 390 62 30 9 62 17 70 19 30 7
185 69 198 79 6 5 12 6 12 1 0 -5 4 -4 8 1 4 6 34 23 67 40 57 28 154 84 165
95 3 3 28 21 55 40 106 73 183 144 319 290 31 34 74 91 130 173 55 81 161 277
149 277 -4 0 -3 4 3 8 14 9 67 158 95 264 27 105 55 287 54 356 0 28 3 52 7
52 4 0 4 10 -1 23 -5 12 -5 31 -1 42 4 11 5 24 3 28 -7 12 -7 106 0 113 3 3 1
18 -3 34 -4 16 -6 31 -3 34 8 7 7 105 -1 113 -3 3 -1 13 4 22 5 10 5 23 0 31
-4 7 -4 24 0 36 6 14 5 26 0 29 -5 3 -5 18 -1 33 4 15 5 38 1 52 -4 14 -4 36
0 50 4 14 4 36 0 50 -4 14 -3 37 1 52 4 15 4 30 -1 33 -5 3 -6 15 0 29 4 12 4
29 0 36 -5 8 -5 21 0 30 5 9 5 22 1 29 -5 7 -5 29 -1 49 3 21 3 49 -1 63 -3
15 -3 32 1 39 5 8 5 23 0 35 -5 12 -5 28 0 35 5 7 4 23 0 36 -5 12 -6 25 -3
28 5 5 -84 5 -90 0z"/>
<path d="M3516 6462 c-3 -6 -2 -13 3 -17 6 -3 7 -15 1 -29 -4 -12 -4 -29 0
-36 5 -8 5 -21 0 -30 -5 -9 -5 -22 0 -29 4 -8 4 -27 0 -42 -5 -16 -5 -29 0
-29 5 0 5 -13 0 -30 -5 -17 -5 -30 0 -30 5 0 5 -13 0 -30 -5 -19 -5 -30 1 -30
6 0 7 -5 4 -11 -6 -9 -7 -88 -3 -196 1 -24 -1 -45 -4 -49 -4 -3 -2 -19 2 -35
5 -16 5 -31 1 -34 -5 -2 -5 -23 -1 -45 4 -22 4 -43 -1 -45 -4 -3 -4 -18 1 -34
4 -16 5 -32 2 -36 -8 -7 -5 -102 3 -115 3 -6 2 -10 -4 -10 -6 0 -6 -11 -1 -30
5 -17 5 -30 0 -30 -5 0 -5 -13 0 -30 5 -17 5 -30 0 -30 -5 0 -5 -13 0 -30 5
-19 5 -30 -1 -30 -6 0 -7 -4 -4 -10 3 -5 8 -51 10 -102 6 -111 11 -164 19
-198 3 -14 8 -36 10 -50 22 -136 95 -342 173 -490 46 -86 141 -239 163 -260 3
-3 28 -32 55 -65 64 -77 144 -157 220 -220 33 -28 62 -52 65 -56 22 -23 216
-141 305 -184 228 -110 438 -166 683 -180 46 -3 88 -8 93 -11 5 -3 9 -1 9 4 0
6 14 7 34 2 19 -4 38 -5 41 -2 7 7 105 5 112 -2 2 -2 18 0 34 4 16 5 31 5 34
0 3 -5 15 -6 29 0 12 4 29 4 36 0 8 -5 21 -5 30 0 9 5 22 5 28 1 7 -4 35 -5
62 -1 27 4 55 3 62 -1 6 -4 19 -4 28 1 9 5 22 5 30 0 7 -4 24 -4 36 0 14 6 26
5 29 0 3 -5 18 -5 33 -1 15 4 38 5 52 1 14 -3 42 -3 62 0 20 4 42 4 49 -1 7
-4 20 -4 29 1 9 5 22 5 30 0 7 -4 24 -4 36 0 14 6 26 5 29 0 3 -5 18 -5 33 -1
15 4 39 4 54 0 15 -4 29 -5 32 -2 3 3 24 5 47 5 l41 -1 -7 67 c-15 158 -37
287 -75 447 -25 106 -27 113 -81 275 -60 178 -170 424 -244 545 -14 22 -29 49
-34 60 -25 56 -189 287 -317 445 -50 62 -310 316 -390 382 -189 156 -385 283
-599 392 -194 99 -318 148 -570 225 -31 10 -226 55 -280 66 -16 3 -41 8 -55
10 -14 3 -45 8 -70 11 -163 23 -227 27 -234 16z"/>
<path d="M3267 4283 c-3 -10 -14 -31 -24 -48 -10 -16 -38 -64 -62 -105 -25
-41 -48 -77 -52 -80 -3 -3 -11 -14 -17 -25 -11 -21 -89 -122 -148 -192 -52
-61 -182 -191 -238 -238 -27 -22 -60 -50 -75 -63 -38 -33 -255 -178 -291 -194
-16 -7 -30 -16 -30 -20 0 -3 -16 -12 -35 -18 -19 -6 -35 -15 -35 -18 0 -4 30
-23 68 -42 77 -40 226 -136 292 -189 24 -20 53 -43 63 -51 90 -70 242 -223
317 -316 83 -104 126 -161 140 -189 6 -11 31 -51 55 -90 25 -38 52 -87 61
-107 9 -21 19 -38 23 -38 4 0 20 27 36 60 16 33 33 60 39 60 5 0 7 3 4 6 -5 4
40 82 69 119 4 6 23 33 42 60 19 28 48 66 63 85 16 19 38 46 50 60 78 96 246
255 368 347 30 23 60 47 67 53 7 5 17 10 23 10 5 0 10 4 10 9 0 5 8 11 18 15
9 3 52 28 95 56 43 27 82 50 86 50 3 0 17 7 30 16 23 16 23 16 -51 56 -123 67
-337 214 -346 239 -2 5 -8 9 -13 9 -23 0 -214 192 -318 320 -70 86 -166 221
-185 260 -4 8 -18 33 -31 55 -14 22 -30 52 -36 68 -13 31 -24 35 -32 10z"/>
<path d="M125 3040 c-11 -4 -24 -5 -28 -3 -15 9 8 -192 39 -344 3 -16 7 -41 9
-58 13 -104 125 -463 191 -610 138 -310 286 -550 499 -811 43 -53 288 -300
345 -349 117 -99 149 -125 158 -125 5 0 12 -7 16 -15 3 -8 12 -15 20 -15 8 0
16 -4 18 -8 3 -8 151 -110 233 -161 118 -74 316 -173 462 -230 102 -41 295
-107 336 -115 31 -7 53 -12 122 -31 33 -9 74 -18 90 -20 17 -1 41 -6 55 -9 37
-9 80 -16 125 -21 22 -3 54 -7 71 -10 65 -11 156 -16 151 -8 -2 4 -1 17 3 28
4 11 4 32 -1 47 -4 15 -4 30 1 33 5 3 5 18 0 34 -4 16 -6 32 -2 35 7 8 5 112
-2 125 -4 5 -2 12 3 16 6 3 7 15 1 29 -4 12 -5 29 0 36 5 7 5 23 0 35 -5 12
-4 28 0 35 5 8 6 18 3 23 -7 12 -8 106 0 113 3 3 1 19 -3 35 -5 16 -5 31 -1
34 5 2 5 23 1 45 -4 22 -4 43 1 45 4 3 4 18 -1 34 -4 16 -6 32 -2 35 7 8 5
112 -2 125 -4 5 -2 12 3 16 7 3 7 15 1 30 -5 14 -5 27 0 30 5 3 5 18 0 35 -5
18 -5 32 1 36 5 3 7 9 4 14 -3 5 -7 59 -10 122 -5 112 -7 128 -20 210 -12 69
-13 77 -35 161 -28 106 -83 252 -132 350 -43 86 -126 220 -139 225 -5 2 -9 9
-9 15 0 7 -13 26 -28 43 -15 17 -40 49 -57 70 -43 54 -161 172 -220 219 -27
22 -61 50 -75 63 -14 12 -30 22 -37 22 -6 0 -13 4 -15 9 -6 16 -153 104 -253
152 -92 44 -245 102 -298 114 -12 2 -40 9 -62 15 -81 20 -214 40 -305 45 -51
3 -97 8 -101 11 -4 2 -10 0 -13 -5 -4 -6 -18 -6 -36 -1 -16 5 -32 5 -35 1 -2
-5 -23 -5 -45 -1 -22 4 -43 4 -45 -1 -3 -4 -18 -4 -34 1 -16 4 -32 5 -36 2 -7
-8 -102 -5 -115 3 -6 3 -10 2 -10 -4 0 -6 -11 -6 -30 -1 -17 5 -30 5 -30 0 0
-5 -13 -5 -30 0 -17 5 -30 5 -30 0 0 -5 -13 -5 -30 0 -17 5 -30 5 -30 0 0 -5
-13 -5 -30 0 -17 5 -30 5 -30 0 0 -5 -13 -5 -30 0 -17 5 -30 5 -30 0 0 -5 -13
-5 -30 0 -17 5 -30 5 -30 0 0 -5 -13 -5 -30 0 -17 5 -30 5 -30 0 0 -5 -13 -5
-30 0 -19 5 -30 5 -30 -1 0 -6 -4 -7 -10 -4 -13 8 -108 11 -115 3 -4 -3 -20
-2 -36 2 -16 5 -31 5 -34 0 -3 -5 -18 -5 -33 -1 -15 5 -36 5 -47 1z"/>
<path d="M5296 3042 c-2 -1 -41 -4 -89 -7 -47 -2 -100 -7 -119 -10 -100 -17
-150 -27 -218 -46 -41 -11 -82 -21 -90 -23 -94 -23 -337 -140 -455 -220 -150
-100 -301 -240 -420 -387 -41 -51 -165 -242 -165 -255 0 -8 -4 -14 -10 -14 -5
0 -10 -9 -10 -20 0 -11 -4 -20 -10 -20 -5 0 -10 -5 -10 -12 0 -6 -11 -35 -26
-65 -28 -59 -99 -270 -107 -318 -3 -16 -10 -55 -16 -85 -5 -30 -13 -73 -16
-95 -7 -44 -17 -228 -15 -260 1 -11 1 -27 1 -35 -3 -63 -2 -111 4 -120 3 -5 2
-10 -4 -10 -6 0 -6 -11 -1 -30 5 -17 5 -30 0 -30 -5 0 -5 -13 0 -30 5 -17 5
-30 0 -30 -5 0 -5 -13 0 -30 5 -17 5 -30 0 -30 -5 0 -5 -13 0 -30 5 -17 5 -30
0 -30 -5 0 -5 -13 0 -30 5 -17 5 -30 0 -30 -5 0 -5 -13 0 -30 5 -17 5 -30 0
-30 -5 0 -5 -13 0 -30 5 -17 5 -30 0 -30 -5 0 -5 -13 0 -30 5 -19 5 -30 -1
-30 -6 0 -7 -4 -4 -10 8 -13 11 -108 3 -115 -3 -4 -2 -20 2 -36 5 -16 5 -31 1
-34 -5 -2 -5 -23 -1 -45 4 -22 4 -43 -1 -45 -4 -3 -4 -19 1 -35 5 -16 5 -32 0
-35 -5 -3 -5 -18 -1 -33 5 -15 5 -37 0 -49 -4 -12 -4 -25 0 -28 11 -6 144 5
226 19 17 3 73 12 125 21 52 9 119 23 150 31 30 9 64 17 75 19 11 1 20 3 20 4
0 2 9 4 20 6 25 5 250 79 290 96 17 7 32 13 35 14 3 1 22 9 44 18 21 9 41 17
44 17 9 0 247 120 307 155 33 20 75 43 93 52 17 9 32 20 32 25 0 4 5 8 11 8 8
0 70 39 114 72 6 4 57 43 115 86 139 104 171 132 330 292 409 410 681 889 835
1470 9 34 54 258 59 295 10 71 17 129 22 186 4 56 4 57 -25 61 -15 2 -37 1
-47 -2 -11 -4 -31 -4 -46 1 -16 4 -28 4 -28 -1 0 -4 -15 -5 -32 -1 -18 4 -48
4 -65 0 -18 -3 -33 -3 -33 2 0 4 -13 4 -30 -1 -17 -5 -30 -5 -30 0 0 5 -13 5
-30 0 -17 -5 -30 -5 -30 0 0 5 -13 5 -29 0 -15 -4 -34 -4 -42 0 -7 5 -20 5
-29 0 -9 -5 -22 -5 -30 0 -8 5 -21 5 -30 0 -9 -5 -22 -5 -30 0 -8 5 -21 5 -31
0 -9 -5 -19 -7 -22 -4 -8 8 -106 9 -113 1 -3 -3 -19 -1 -35 3 -16 5 -31 5 -34
1 -2 -5 -23 -5 -45 -1 -22 4 -43 4 -45 -1 -3 -4 -18 -4 -34 1 -16 4 -32 5 -36
2 -5 -6 -30 -5 -143 1 -24 1 -45 1 -46 -1z"/>
</g>
</svg>
